<svg id="Layer_1" data-name="Layer 1" xmlns="http://www.w3.org/2000/svg" viewBox="0 0 926 822.84"><defs><style>.cls-1{fill:#231f20;}</style></defs><title>Datemates logo</title><path class="cls-1" d="M384.85,35.58H276.4l75.35,98.36h37.84C521.14,133.94,653.53,253,653.53,447S521.14,760.06,389.58,760.06H147.35v98.36h237.5c188.92,0,379-156.53,379-411.42S573.77,35.58,384.85,35.58Z" transform="translate(-37 -35.58)"/><polygon class="cls-1" points="777.26 0 463 410.22 463 410.22 148.74 0 0 0 0 822.85 110.35 822.85 110.35 140.34 463 575.75 463 575.75 815.65 140.34 815.65 822.85 926 822.85 926 0 777.26 0"/></svg>