<?xml version="1.0" standalone="no"?>
<!DOCTYPE svg PUBLIC "-//W3C//DTD SVG 20010904//EN"
 "http://www.w3.org/TR/2001/REC-SVG-20010904/DTD/svg10.dtd">
<svg version="1.0" xmlns="http://www.w3.org/2000/svg"
 width="500.000000pt" height="500.000000pt" viewBox="0 0 500.000000 500.000000"
 preserveAspectRatio="xMidYMid meet">
<metadata>
Created by potrace 1.14, written by Peter Selinger 2001-2017
</metadata>
<g transform="translate(0.000000,500.000000) scale(0.100000,-0.100000)"
fill="#000000" stroke="none">
<path d="M210 4552 l-25 -3 0 -2047 c0 -1126 3 -2051 7 -2057 7 -11 1800 -12
1893 -2 305 35 557 122 813 281 235 147 464 378 613 622 140 229 256 557 284
800 4 32 9 68 12 79 3 11 6 115 8 230 3 214 -9 370 -40 510 -8 39 -18 81 -21
95 -3 14 -11 46 -19 72 l-14 47 100 123 c55 68 142 174 192 237 51 62 97 118
102 125 6 6 28 34 50 61 21 28 42 52 45 55 3 3 16 18 28 34 l22 29 1 -39 c0
-22 1 -787 1 -1701 1 -1216 4 -1663 12 -1664 15 -1 507 -1 526 0 13 1 15 236
15 2056 l0 2055 -25 1 c-14 0 -182 1 -373 1 -328 0 -349 -1 -362 -18 -18 -25
-402 -525 -418 -544 -7 -8 -23 -31 -37 -50 -13 -19 -30 -40 -36 -47 -7 -7 -34
-42 -60 -78 -26 -36 -51 -65 -54 -65 -4 0 -34 35 -67 78 -287 369 -740 637
-1198 706 -99 15 -172 18 -468 18 -180 1 -329 -1 -331 -3 -2 -2 21 -36 52 -75
32 -39 113 -146 182 -237 70 -94 134 -169 145 -171 11 -3 90 -7 175 -10 157
-5 193 -9 265 -28 22 -5 47 -11 55 -13 37 -7 158 -58 238 -100 218 -113 428
-324 557 -558 20 -37 35 -74 32 -81 -3 -8 -33 -50 -67 -93 -51 -66 -321 -419
-400 -523 -79 -104 -113 -145 -120 -145 -8 0 -57 63 -492 631 -84 110 -297
388 -473 618 -176 230 -384 501 -462 603 l-142 186 -348 1 c-191 1 -359 0
-373 -2z m617 -815 c45 -56 137 -169 203 -252 67 -82 135 -166 150 -185 16
-19 131 -161 256 -315 124 -154 270 -334 322 -400 53 -66 99 -122 102 -125 3
-3 24 -27 45 -55 22 -27 47 -59 56 -70 22 -26 251 -309 412 -508 l128 -157
147 183 c405 503 605 746 612 742 8 -5 5 -257 -4 -310 -2 -16 -8 -55 -11 -85
-9 -76 -59 -268 -91 -354 -132 -349 -383 -636 -692 -790 -76 -38 -222 -90
-282 -100 -19 -4 -53 -10 -75 -14 -22 -4 -339 -7 -704 -7 l-664 0 -1 1452 c-1
799 1 1453 4 1453 3 -1 42 -47 87 -103z"/>
</g>
</svg>
